<svg width="1440" height="180" viewBox="0 0 1440 180" fill="none" xmlns="http://www.w3.org/2000/svg">
<path fill-rule="evenodd" clip-rule="evenodd" d="M0 71.2491L34.8 63.9991C68.4 56.749 136.8 42.2489 205.2 45.8739C274.8 49.4989 343.2 71.2491 411.6 89.3743C480 107.499 548.4 122 616.8 125.625C685.2 129.25 754.8 122 823.2 92.9993C891.6 63.9991 960 13.2486 1028.4 2.37356C1096.8 -8.50153 1165.2 20.4987 1234.8 38.6239C1303.2 56.749 1371.6 63.9991 1405.2 67.6241L1440 71.2491V180H1405.2C1371.6 180 1303.2 180 1234.8 180C1165.2 180 1096.8 180 1028.4 180C960 180 891.6 180 823.2 180C754.8 180 685.2 180 616.8 180C548.4 180 480 180 411.6 180C343.2 180 274.8 180 205.2 180C136.8 180 68.4 180 34.8 180H0V71.2491Z" fill="white"/>
</svg>
