<svg width="25" height="25" viewBox="0 0 25 25" fill="none" xmlns="http://www.w3.org/2000/svg">
<g clip-path="url(#clip0_18_179)">
<path d="M22.9167 5.95833L18.1302 1.94271L16.7917 3.53646L21.5781 7.55208L22.9167 5.95833ZM8.20834 3.53125L6.8698 1.9375L2.08334 5.95312L3.42189 7.54687L8.20834 3.53125ZM13.0208 8.33333H11.4583V14.5833L16.4011 17.5573L17.1875 16.2708L13.0208 13.8021V8.33333ZM12.4948 4.16667C7.31251 4.16667 3.12501 8.36458 3.12501 13.5417C3.12501 18.7188 7.31251 22.9167 12.4948 22.9167C17.6771 22.9167 21.875 18.7188 21.875 13.5417C21.875 8.36458 17.6771 4.16667 12.4948 4.16667ZM12.5 20.8333C8.47397 20.8333 5.20834 17.5677 5.20834 13.5417C5.20834 9.51562 8.47397 6.25 12.5 6.25C16.5261 6.25 19.7917 9.51562 19.7917 13.5417C19.7917 17.5677 16.5313 20.8333 12.5 20.8333Z" fill="white"/>
</g>
<defs>
<clipPath id="clip0_18_179">
<rect width="25" height="25" fill="white"/>
</clipPath>
</defs>
</svg>
