<svg width="28" height="28" viewBox="0 0 28 28" fill="none" xmlns="http://www.w3.org/2000/svg">
<path d="M0 20.6316C0 21.9358 0.6825 23.0926 1.75 23.9032V26.5263C1.75 27.3368 2.5375 28 3.5 28H5.25C6.22125 28 7 27.3368 7 26.5263V25.0526H21V26.5263C21 27.3368 21.7787 28 22.75 28H24.5C25.4625 28 26.25 27.3368 26.25 26.5263V23.9032C27.3175 23.0926 28 21.9358 28 20.6316V5.89474C28 0.736842 21.735 0 14 0C6.265 0 0 0.736842 0 5.89474V20.6316ZM6.125 22.1053C4.6725 22.1053 3.5 21.1179 3.5 19.8947C3.5 18.6716 4.6725 17.6842 6.125 17.6842C7.5775 17.6842 8.75 18.6716 8.75 19.8947C8.75 21.1179 7.5775 22.1053 6.125 22.1053ZM21.875 22.1053C20.4225 22.1053 19.25 21.1179 19.25 19.8947C19.25 18.6716 20.4225 17.6842 21.875 17.6842C23.3275 17.6842 24.5 18.6716 24.5 19.8947C24.5 21.1179 23.3275 22.1053 21.875 22.1053ZM24.5 13.2632H3.5V5.89474H24.5V13.2632Z" fill="#5582F8" fill-opacity="0.93"/>
</svg>
