<svg width="28" height="28" viewBox="0 0 28 28" fill="none" xmlns="http://www.w3.org/2000/svg">
<path d="M24.7644 1.7675C24.4456 0.735 23.5744 0 22.5556 0H5.44444C4.42556 0 3.55444 0.735 3.23556 1.7675L0 12.25V26.25C0 27.2125 0.7 28 1.55556 28H3.11111C3.97444 28 4.66667 27.2125 4.66667 26.25V24.5H23.3333V26.25C23.3333 27.2125 24.0333 28 24.8889 28H26.4444C27.3078 28 28 27.2125 28 26.25V12.25L24.7644 1.7675ZM5.44444 19.25C4.15333 19.25 3.11111 18.0775 3.11111 16.625C3.11111 15.1725 4.15333 14 5.44444 14C6.73556 14 7.77778 15.1725 7.77778 16.625C7.77778 18.0775 6.73556 19.25 5.44444 19.25ZM22.5556 19.25C21.2644 19.25 20.2222 18.0775 20.2222 16.625C20.2222 15.1725 21.2644 14 22.5556 14C23.8467 14 24.8889 15.1725 24.8889 16.625C24.8889 18.0775 23.8467 19.25 22.5556 19.25ZM3.11111 10.5L5.44444 2.625H22.5556L24.8889 10.5H3.11111Z" fill="#5582F8" fill-opacity="0.93"/>
</svg>
