<svg width="50" height="50" viewBox="0 0 50 50" fill="none" xmlns="http://www.w3.org/2000/svg">
<path d="M6.98516 18.6467C8.34244 12.8604 12.8604 8.34244 18.6467 6.98516C22.8255 6.00494 27.1745 6.00494 31.3533 6.98516C37.1396 8.34244 41.6576 12.8604 43.0148 18.6467C43.9951 22.8255 43.9951 27.1745 43.0148 31.3533C41.6576 37.1396 37.1396 41.6576 31.3533 43.0148C27.1745 43.9951 22.8255 43.9951 18.6467 43.0148C12.8604 41.6576 8.34245 37.1396 6.98516 31.3533C6.00495 27.1745 6.00494 22.8255 6.98516 18.6467Z" stroke="#5582F8" stroke-opacity="0.93" stroke-width="1.5"/>
<path d="M6.98516 18.6467C6.00494 22.8255 6.00495 27.1745 6.98516 31.3533C8.34245 37.1396 12.8604 41.6576 18.6467 43.0148C22.8255 43.9951 27.1745 43.9951 31.3533 43.0148C37.1396 41.6576 41.6576 37.1396 43.0148 31.3533C43.9951 27.1745 43.9951 22.8255 43.0148 18.6467C41.6576 12.8604 37.1396 8.34244 31.3533 6.98516" stroke="black" stroke-width="1.5" stroke-linecap="round"/>
<path d="M30.2084 30.2083L24.2946 26.4456V18.75" stroke="#5582F8" stroke-opacity="0.93" stroke-width="1.5" stroke-linecap="round" stroke-linejoin="round"/>
</svg>
