<svg width="40" height="40" viewBox="0 0 40 40" fill="none" xmlns="http://www.w3.org/2000/svg">
<path fill-rule="evenodd" clip-rule="evenodd" d="M19.4329 3.38282L19.1183 3.49791C17.404 4.0728 15.6612 4.80558 14.2326 5.45232C14.5326 5.69665 14.8042 5.96981 15.0613 6.25725C16.1899 7.53637 16.9326 9.21789 17.4183 10.9138C18.4183 14.32 18.5756 18.2579 18.5756 20.6006C18.5756 24.1792 15.7041 27.068 12.147 27.068C8.63266 27.068 5.7755 24.2368 5.71836 20.7157C4.84692 23.5614 3.87545 26.9675 2.8183 31.0491C2.6183 31.8109 1.83262 32.2707 1.07548 32.0695C0.304044 31.8683 -0.153059 31.0779 0.0469417 30.3162C2.38981 21.3767 4.28979 15.5273 5.73266 11.7331C5.77551 11.5463 5.8468 11.3593 5.9468 11.2012C7.38967 7.50754 8.34684 5.898 8.83256 5.23688C9.13256 4.80572 9.53254 4.53248 9.8754 4.34564C10.004 4.28816 10.1469 4.21644 10.3326 4.1302V4.07266C10.3612 4.07266 10.3899 4.07266 10.4327 4.07266C11.9042 3.33968 15.0755 1.83054 18.2041 0.767002C18.3184 0.723886 18.4327 0.681008 18.5613 0.652264C19.4041 0.350449 20.3042 0.0339821 21.1757 0.0052379C22.3471 -0.0522506 23.3614 0.364653 24.4329 1.19824C25.2329 1.81624 26.4898 2.52048 27.8041 3.00914C29.1756 3.51216 30.347 3.67038 31.0613 3.49791C32.4613 3.15298 33.6613 2.82221 34.547 2.56352C35.9898 2.13235 37.933 2.5347 38.7473 4.2881C39.433 5.73968 39.9185 7.55084 39.99 9.23237C40.0614 10.8277 39.7758 12.7679 38.3615 13.9321C36.7615 15.2256 33.9615 17.252 30.8615 19.3072C29.7043 20.069 29.4615 21.0747 29.0758 22.2532C29.0186 22.8281 29.0756 23.4177 29.2613 23.9926C30.5327 27.7724 32.3042 33.6216 32.8471 38.3931C32.9471 39.1836 32.3758 39.9023 31.6044 39.9886C30.8187 40.0892 30.1042 39.5145 30.0185 38.7384C29.5328 34.6136 28.0757 29.5258 26.8471 25.8035C25.8757 26.7664 24.7754 27.5136 23.7754 28.1747L23.6471 28.261C23.0042 28.7066 22.104 28.5197 21.6755 27.8586C21.2326 27.2118 21.4184 26.3062 22.0755 25.875C24.0612 24.5384 25.604 23.4605 26.2898 21.5778C26.5898 19.7094 27.647 17.9991 29.2899 16.9069C32.3471 14.8804 35.0758 12.9116 36.5615 11.6899C36.8758 11.4313 37.2042 10.7125 37.1471 9.3615C37.1042 8.52791 36.8898 5.65376 35.9327 5.3232C35.7898 5.26571 35.5756 5.25134 35.3471 5.3232C34.4328 5.59627 33.1756 5.94109 31.7327 6.28602C30.1756 6.65969 28.3471 6.27144 26.8328 5.71092C25.2614 5.13604 23.7469 4.28835 22.6897 3.46914C21.9754 2.923 21.604 2.86529 21.304 2.87966C20.8755 2.89403 20.4043 3.05227 19.4329 3.38282ZM11.0755 7.01901C10.7041 7.56515 9.86124 9.01665 8.57552 12.3222V20.6006C8.57552 22.5839 10.1755 24.1936 12.147 24.1936C14.1184 24.1936 15.7184 22.5839 15.7184 20.6006C15.7184 18.3154 15.5613 14.7225 14.6899 11.7187C14.247 10.224 13.6613 9.00243 12.9328 8.16885C12.4042 7.57959 11.8041 7.1771 11.0755 7.01901Z" fill="#5582F8" fill-opacity="0.93"/>
</svg>
