<svg width="30" height="30" viewBox="0 0 30 30" fill="none" xmlns="http://www.w3.org/2000/svg">
<path d="M7.5 18.0779H20.2387C22.0082 18.0779 23.09 15.9674 22.1576 14.3339L21.5456 13.2615C20.9433 12.2063 20.9433 10.8716 21.5456 9.81636L22.1576 8.74405C23.09 7.11053 22.0082 5 20.2387 5L7.5 5L7.5 18.0779ZM7.5 18.0779L7.5 25" stroke="#4C4D4F" stroke-width="1.5" stroke-linecap="round" stroke-linejoin="round"/>
<path d="M20.2387 18.0779C22.0082 18.0779 23.09 15.9674 22.1576 14.3339L21.5456 13.2615C20.9433 12.2063 20.9433 10.8716 21.5456 9.81636L22.1576 8.74405C23.09 7.11053 22.0082 5 20.2387 5L7.5 5L7.5 9.03895" stroke="#5582F8" stroke-opacity="0.93" stroke-width="1.5" stroke-linecap="round" stroke-linejoin="round"/>
</svg>
