<svg width="65" height="60" viewBox="0 0 65 60" fill="none" xmlns="http://www.w3.org/2000/svg">
<g clip-path="url(#clip0_20_94)">
<path d="M8.18222 32.5001C12.659 32.5001 16.2881 28.5359 16.2881 23.6459C16.2881 18.7559 12.659 14.7917 8.18222 14.7917C3.70544 14.7917 0.0762939 18.7559 0.0762939 23.6459C0.0762939 28.5359 3.70544 32.5001 8.18222 32.5001Z" fill="white"/>
<path d="M22.7729 18.3333C27.2496 18.3333 30.8788 14.3692 30.8788 9.47917C30.8788 4.58915 27.2496 0.625 22.7729 0.625C18.2961 0.625 14.6669 4.58915 14.6669 9.47917C14.6669 14.3692 18.2961 18.3333 22.7729 18.3333Z" fill="white"/>
<path d="M42.2271 18.3333C46.7039 18.3333 50.3331 14.3692 50.3331 9.47917C50.3331 4.58915 46.7039 0.625 42.2271 0.625C37.7504 0.625 34.1212 4.58915 34.1212 9.47917C34.1212 14.3692 37.7504 18.3333 42.2271 18.3333Z" fill="white"/>
<path d="M56.8178 32.5001C61.2946 32.5001 64.9237 28.5359 64.9237 23.6459C64.9237 18.7559 61.2946 14.7917 56.8178 14.7917C52.341 14.7917 48.7119 18.7559 48.7119 23.6459C48.7119 28.5359 52.341 32.5001 56.8178 32.5001Z" fill="white"/>
<path d="M46.7371 37.6434C44.3469 34.4516 42.3414 31.7292 39.9238 28.5374C38.6601 26.8476 37.0392 25.1578 35.1161 24.4068C34.8139 24.2816 34.5117 24.1878 34.2095 24.1252C33.5226 24 32.7809 24 32.0666 24C31.3523 24 30.6105 24 29.8962 24.1565C29.594 24.219 29.2918 24.3129 28.9896 24.4381C27.0665 25.1891 25.4731 26.8789 24.1819 28.5687C21.7917 31.7605 19.7862 34.4829 17.3686 37.6747C13.7696 41.774 9.3465 46.3114 10.1707 52.6638C10.9674 55.8556 12.9729 59.0161 16.5719 59.9236C18.5774 60.393 24.9786 58.5467 31.7918 58.5467H32.2864C39.0996 58.5467 45.5008 60.3617 47.5063 59.9236C51.1053 59.0161 53.1108 55.8243 53.9075 52.6638C54.7592 46.2801 50.336 41.7427 46.7371 37.6434Z" fill="white"/>
</g>
<defs>
<clipPath id="clip0_20_94">
<rect width="65" height="60" fill="white"/>
</clipPath>
</defs>
</svg>
