<svg width="30" height="30" viewBox="0 0 30 30" fill="none" xmlns="http://www.w3.org/2000/svg">
<path d="M5.37781 8.12549L12.6031 13.2875C14.0369 14.3119 15.9631 14.3119 17.3969 13.2875L24.6222 8.12549" stroke="#5582F8" stroke-opacity="0.93" stroke-width="1.5" stroke-linecap="round"/>
<path d="M3.60674 11.0609C4.44756 7.67479 7.13252 5.05667 10.5382 4.30202L11.1055 4.17631C13.6708 3.6079 16.3293 3.6079 18.8945 4.17631L19.4618 4.30202C22.8675 5.05667 25.5524 7.6748 26.3933 11.0609C27.0356 13.6477 27.0356 16.3523 26.3933 18.9391C25.5524 22.3252 22.8675 24.9433 19.4618 25.698L18.8945 25.8237C16.3293 26.3921 13.6707 26.3921 11.1055 25.8237L10.5382 25.698C7.13252 24.9433 4.44756 22.3252 3.60674 18.9391C2.96442 16.3523 2.96442 13.6477 3.60674 11.0609Z" stroke="#5582F8" stroke-opacity="0.93" stroke-width="1.5" stroke-linecap="round"/>
<path d="M26.3933 18.9391C27.0356 16.3523 27.0356 13.6477 26.3933 11.0609C25.5524 7.6748 22.8675 5.05667 19.4618 4.30202L18.8945 4.17631C16.3293 3.6079 13.6708 3.6079 11.1055 4.17631L10.5382 4.30202C7.13252 5.05667 4.44756 7.67479 3.60674 11.0609C2.96442 13.6477 2.96442 16.3523 3.60674 18.9391C4.44756 22.3252 7.13252 24.9433 10.5382 25.698L11.1055 25.8237C13.6707 26.3921 16.3293 26.3921 18.8945 25.8237L19.4618 25.698" stroke="#4C4D4F" stroke-width="1.5" stroke-linecap="round"/>
</svg>
