<svg width="30" height="30" viewBox="0 0 30 30" fill="none" xmlns="http://www.w3.org/2000/svg">
<path d="M16.25 4.06551C18.9534 3.29524 21.9285 3.93328 23.9976 6.0024C26.0667 8.07153 26.7048 11.0466 25.9345 13.75M18.6711 7.45508C19.6367 7.26276 20.7488 7.59588 21.5765 8.42353C22.4041 9.25118 22.7372 10.3633 22.5449 11.3289" stroke="#5582F8" stroke-opacity="0.93" stroke-width="1.5" stroke-linecap="round" stroke-linejoin="round"/>
<path d="M18.9566 26.1044C20.0586 26.2985 21.1914 26.2985 22.2934 26.1044C24.0645 25.7923 25.4911 24.6032 25.9825 23.0295L26.0867 22.6957C26.1951 22.3487 26.25 21.9898 26.25 21.6292C26.25 20.0391 24.8279 18.75 23.0737 18.75H18.1763C16.4221 18.75 15 20.0391 15 21.6292C15 21.9898 15.0549 22.3487 15.1633 22.6957L15.2675 23.0295C15.7589 24.6032 17.1855 25.7923 18.9566 26.1044ZM18.9566 26.1044C11.3024 24.6861 5.31385 18.6976 3.89563 11.0434M3.89563 11.0434C3.70146 9.94143 3.70146 8.80857 3.89563 7.70665C4.20772 5.93552 5.3968 4.50891 6.97051 4.01752L7.30431 3.91329C7.65129 3.80495 8.01016 3.75 8.37076 3.75C9.96093 3.75 11.25 5.1721 11.25 6.92633L11.25 11.8237C11.25 13.5779 9.96092 15 8.37076 15C8.01016 15 7.65128 14.9451 7.30431 14.8367L6.97051 14.7325C5.3968 14.2411 4.20772 12.8145 3.89563 11.0434Z" stroke="#4C4D4F" stroke-width="1.5"/>
</svg>
