<svg width="30" height="30" viewBox="0 0 30 30" fill="none" xmlns="http://www.w3.org/2000/svg">
<path d="M2 23.5719C2 20.4693 5.03094 17.8267 9.15007 17.3377L9.52111 17.2936C12.8195 16.9021 16.1805 16.9021 19.4789 17.2936L19.8499 17.3377C23.9691 17.8267 27 20.4693 27 23.5719C27 24.9129 25.5384 26 23.7355 26H5.26451C3.46157 26 2 24.9129 2 23.5719Z" stroke="black" stroke-width="1.5"/>
<path d="M21 8C21 11.3137 18.3137 14 15 14C11.6863 14 9 11.3137 9 8C9 4.68629 11.6863 2 15 2C18.3137 2 21 4.68629 21 8Z" stroke="#5582F8" stroke-opacity="0.93" stroke-width="1.5"/>
</svg>
